<svg width="165.000000" height="138.000000" viewBox="0 0 165 138" fill="none" xmlns="http://www.w3.org/2000/svg" xmlns:xlink="http://www.w3.org/1999/xlink">
	<desc>
			Created with Pixso.
	</desc>
	<defs>
		<clipPath id="clip34_29">
			<rect id="фрейм 1" width="165.000000" height="138.000000" fill="white" fill-opacity="0"/>
		</clipPath>
	</defs>
	<g clip-path="url(#clip34_29)">
		<path id="path" d="M85.06 19.98C101.91 19.98 115.48 32.57 115.48 48.19L115.48 55.35C105.42 54.27 95.12 53.83 85.06 53.83C75 53.83 64.7 54.27 54.64 55.35L54.64 48.19C54.64 32.78 68.21 19.98 85.06 19.98ZM140.28 102.44L143.33 77.7C150.11 78.79 155.26 84 155.26 89.86C155.26 96.8 148.47 102.44 140.28 102.44ZM29.6 102.44C21.41 102.44 14.63 96.8 14.63 89.86C14.63 83.78 19.77 78.79 26.56 77.7L29.6 102.44ZM129.75 61.43C114.31 59.91 99.57 59.26 85.29 59.26C71.02 59.26 56.04 59.91 40.83 61.43C35.68 61.86 31.94 66.2 32.64 70.76L37.32 112.86C37.79 116.76 41.07 120.02 45.51 120.45C58.62 121.97 71.96 122.62 85.53 122.62C99.1 122.62 112.44 121.97 125.54 120.45C129.75 120.02 133.26 116.76 133.73 112.86L138.41 70.76C138.41 65.99 134.9 61.86 129.75 61.43ZM59.32 99.62C55.58 99.62 52.77 96.15 52.77 91.59C52.77 87.03 55.81 83.56 59.32 83.56C62.83 83.56 65.87 87.03 65.87 91.59C65.87 96.15 63.06 99.62 59.32 99.62ZM98.4 108.52C98.4 108.95 98.16 109.39 97.93 109.6C97.7 109.82 97.23 110.04 96.76 110.04L73.59 110.04C73.12 110.04 72.66 109.82 72.42 109.6C72.19 109.39 71.96 108.95 71.96 108.52L71.96 104.61C71.96 103.74 72.66 103.09 73.59 103.09L74.06 103.09C75 103.09 75.7 103.74 75.7 104.61L75.7 106.56L94.65 106.56L94.65 104.61C94.65 103.74 95.36 103.09 96.29 103.09L96.76 103.09C97.7 103.09 98.4 103.74 98.4 104.61L98.4 108.52ZM110.8 99.62C107.06 99.62 104.25 96.15 104.25 91.59C104.25 87.03 107.29 83.56 110.8 83.56C114.31 83.56 117.35 87.03 117.35 91.59C117.35 96.15 114.54 99.62 110.8 99.62Z" fill="#4F7FCF" fill-opacity="1.000000" fill-rule="nonzero"/>
	</g>
</svg>
