<svg width="453.000000" height="405.000000" viewBox="0 0 453 405" fill="none" xmlns="http://www.w3.org/2000/svg" xmlns:xlink="http://www.w3.org/1999/xlink">
	<desc>
			Created with Pixso.
	</desc>
	<defs/>
	<path id="Линия 3" d="M153.88 12.5L153.5 392.5" stroke="#4F7FCF" stroke-opacity="1.000000" stroke-width="25.000000" stroke-linecap="round"/>
	<path id="Линия 3" d="M440.5 273.5L12.5 273.5" stroke="#4F7FCF" stroke-opacity="1.000000" stroke-width="25.000000" stroke-linecap="round"/>
	<path id="Линия 3" d="M299.5 12.5L296.5 392.5" stroke="#4F7FCF" stroke-opacity="1.000000" stroke-width="25.000000" stroke-linecap="round"/>
	<path id="Линия 3" d="M12.5 136.5L440.5 136.5" stroke="#4F7FCF" stroke-opacity="1.000000" stroke-width="25.000000" stroke-linecap="round"/>
	<path id="Эллипс 1" d="M224.5 152.5C196.88 152.5 174.5 174.88 174.5 202.5C174.5 230.11 196.88 252.5 224.5 252.5C252.11 252.5 274.5 230.11 274.5 202.5C274.5 174.88 252.11 152.5 224.5 152.5ZM211.06 170.06C215.18 168.35 219.66 167.5 224.5 167.5C229.33 167.5 233.81 168.35 237.93 170.06C242.06 171.77 245.83 174.33 249.24 177.75C252.66 181.16 255.22 184.93 256.93 189.06C258.64 193.18 259.5 197.66 259.5 202.5C259.5 207.33 258.64 211.81 256.93 215.93C255.22 220.06 252.66 223.83 249.24 227.24C245.83 230.66 242.06 233.22 237.93 234.93C233.81 236.64 229.33 237.5 224.5 237.5C219.66 237.5 215.18 236.64 211.06 234.93C206.93 233.22 203.16 230.66 199.75 227.24C196.33 223.83 193.77 220.06 192.06 215.93C190.35 211.81 189.5 207.33 189.5 202.5C189.5 197.66 190.35 193.18 192.06 189.06C193.77 184.93 196.33 181.16 199.75 177.75C203.16 174.33 206.93 171.77 211.06 170.06Z" fill="#4F7FCF" fill-opacity="1.000000" fill-rule="evenodd"/>
	<path id="Эллипс 1" d="M224.5 11.5C196.88 11.5 174.5 33.88 174.5 61.5C174.5 89.11 196.88 111.5 224.5 111.5C252.11 111.5 274.5 89.11 274.5 61.5C274.5 33.88 252.11 11.5 224.5 11.5ZM211.06 29.06C215.18 27.35 219.66 26.5 224.5 26.5C229.33 26.5 233.81 27.35 237.93 29.06C242.06 30.77 245.83 33.33 249.24 36.75C252.66 40.16 255.22 43.93 256.93 48.06C258.64 52.18 259.5 56.66 259.5 61.5C259.5 66.33 258.64 70.81 256.93 74.93C255.22 79.06 252.66 82.83 249.24 86.24C245.83 89.66 242.06 92.22 237.93 93.93C233.81 95.64 229.33 96.5 224.5 96.5C219.66 96.5 215.18 95.64 211.06 93.93C206.93 92.22 203.16 89.66 199.75 86.24C196.33 82.83 193.77 79.06 192.06 74.93C190.35 70.81 189.5 66.33 189.5 61.5C189.5 56.66 190.35 52.18 192.06 48.06C193.77 43.93 196.33 40.16 199.75 36.75C203.16 33.33 206.93 30.77 211.06 29.06Z" fill="#4F7FCF" fill-opacity="1.000000" fill-rule="evenodd"/>
	<path id="Линия 4" d="M39.5 166.5L122.5 242.5" stroke="#FF6969" stroke-opacity="1.000000" stroke-width="20.000000" stroke-linecap="round"/>
	<path id="Линия 4" d="M122.5 166.5L39.5 242.5" stroke="#FF6969" stroke-opacity="1.000000" stroke-width="20.000000" stroke-linecap="round"/>
	<path id="Линия 4" d="M335.5 28.5L418.5 104.5" stroke="#FF6969" stroke-opacity="1.000000" stroke-width="20.000000" stroke-linecap="round"/>
	<path id="Линия 4" d="M418.5 28.5L335.5 104.5" stroke="#FF6969" stroke-opacity="1.000000" stroke-width="20.000000" stroke-linecap="round"/>
	<path id="Линия 4" d="M183.5 310.5L266.5 386.5" stroke="#FF6969" stroke-opacity="1.000000" stroke-width="20.000000" stroke-linecap="round"/>
	<path id="Линия 4" d="M266.5 310.5L183.5 386.5" stroke="#FF6969" stroke-opacity="1.000000" stroke-width="20.000000" stroke-linecap="round"/>
</svg>
