<svg width="140.000000" height="136.000000" viewBox="0 0 140 136" fill="none" xmlns="http://www.w3.org/2000/svg" xmlns:xlink="http://www.w3.org/1999/xlink">
	<defs>
		<clipPath id="clip34_31">
			<rect id="user" width="140.000000" height="136.000000" fill="white" fill-opacity="0"/>
		</clipPath>
	</defs>
	<g clip-path="url(#clip34_31)">
		<path id="path" d="M70 8.24C68.99 8.24 67.98 8.26 66.98 8.31C65.97 8.36 64.97 8.43 63.97 8.53C62.96 8.62 61.97 8.74 60.97 8.89C59.97 9.03 58.98 9.2 57.99 9.39C57.01 9.58 56.03 9.79 55.05 10.03C54.07 10.27 53.1 10.53 52.14 10.81C51.18 11.1 50.22 11.4 49.27 11.73C48.32 12.06 47.39 12.41 46.46 12.79C45.53 13.16 44.61 13.56 43.7 13.98C42.79 14.4 41.89 14.83 41 15.3C40.11 15.76 39.23 16.24 38.37 16.74C37.51 17.24 36.66 17.77 35.82 18.31C34.98 18.85 34.16 19.42 33.35 20C32.54 20.58 31.75 21.18 30.97 21.8C30.19 22.42 29.43 23.06 28.69 23.72C27.94 24.38 27.21 25.05 26.5 25.74C25.79 26.43 25.09 27.14 24.42 27.87C23.74 28.59 23.08 29.33 22.45 30.09C21.81 30.84 21.19 31.61 20.59 32.4C19.99 33.18 19.41 33.98 18.85 34.8C18.29 35.61 17.75 36.44 17.23 37.27C16.72 38.11 16.22 38.96 15.75 39.83C15.27 40.69 14.82 41.56 14.39 42.45C13.96 43.33 13.55 44.22 13.16 45.13C12.78 46.03 12.42 46.94 12.08 47.86C11.74 48.78 11.42 49.71 11.13 50.65C10.84 51.58 10.57 52.53 10.33 53.48C10.08 54.42 9.86 55.38 9.66 56.34C9.47 57.3 9.3 58.26 9.15 59.23C9 60.19 8.88 61.16 8.78 62.14C8.68 63.11 8.61 64.09 8.56 65.06C8.51 66.04 8.48 67.02 8.48 68C8.48 68.97 8.51 69.95 8.56 70.93C8.61 71.9 8.68 72.88 8.78 73.85C8.88 74.83 9 75.8 9.15 76.76C9.3 77.73 9.47 78.69 9.66 79.65C9.86 80.61 10.08 81.57 10.33 82.51C10.57 83.46 10.84 84.41 11.13 85.34C11.42 86.28 11.74 87.21 12.08 88.13C12.42 89.05 12.78 89.96 13.16 90.86C13.55 91.77 13.96 92.66 14.39 93.54C14.82 94.43 15.27 95.3 15.75 96.16C16.22 97.03 16.72 97.88 17.23 98.72C17.75 99.55 18.29 100.38 18.85 101.19C19.41 102.01 19.99 102.81 20.59 103.59C21.19 104.38 21.81 105.15 22.45 105.9C23.08 106.66 23.74 107.4 24.42 108.12C25.09 108.85 25.79 109.56 26.5 110.25C27.21 110.94 27.94 111.61 28.69 112.27C29.43 112.93 30.19 113.57 30.97 114.19C31.75 114.81 32.54 115.41 33.35 115.99C34.16 116.57 34.98 117.14 35.82 117.68C36.66 118.22 37.51 118.75 38.37 119.25C39.23 119.75 40.11 120.23 41 120.69C41.89 121.16 42.79 121.6 43.7 122.01C44.61 122.43 45.53 122.83 46.46 123.2C47.39 123.58 48.32 123.93 49.27 124.26C50.22 124.59 51.18 124.89 52.14 125.18C53.1 125.46 54.07 125.72 55.05 125.96C56.03 126.2 57.01 126.41 57.99 126.6C58.98 126.79 59.97 126.96 60.97 127.1C61.97 127.25 62.96 127.37 63.97 127.46C64.97 127.56 65.97 127.63 66.98 127.68C67.98 127.73 68.99 127.75 70 127.75C71 127.75 72.01 127.73 73.01 127.68C74.02 127.63 75.02 127.56 76.02 127.46C77.03 127.37 78.03 127.25 79.02 127.1C80.02 126.96 81.01 126.79 82 126.6C82.98 126.41 83.96 126.2 84.94 125.96C85.92 125.72 86.89 125.46 87.85 125.18C88.81 124.89 89.77 124.59 90.72 124.26C91.67 123.93 92.6 123.58 93.53 123.2C94.47 122.83 95.39 122.43 96.3 122.01C97.21 121.6 98.1 121.16 98.99 120.69C99.88 120.23 100.76 119.75 101.62 119.25C102.48 118.75 103.33 118.22 104.17 117.68C105.01 117.14 105.83 116.57 106.64 115.99C107.45 115.41 108.24 114.81 109.02 114.19C109.8 113.57 110.56 112.93 111.3 112.27C112.05 111.61 112.78 110.94 113.49 110.25C114.2 109.56 114.9 108.85 115.57 108.12C116.25 107.4 116.91 106.66 117.55 105.9C118.18 105.15 118.8 104.38 119.4 103.59C120 102.81 120.58 102.01 121.14 101.19C121.7 100.38 122.24 99.55 122.76 98.72C123.27 97.88 123.77 97.03 124.24 96.16C124.72 95.3 125.17 94.43 125.6 93.54C126.03 92.66 126.44 91.77 126.83 90.86C127.21 89.96 127.57 89.05 127.91 88.13C128.25 87.21 128.57 86.28 128.86 85.34C129.15 84.41 129.42 83.46 129.66 82.51C129.91 81.57 130.13 80.61 130.33 79.65C130.52 78.69 130.69 77.73 130.84 76.76C130.99 75.8 131.11 74.83 131.21 73.85C131.31 72.88 131.38 71.9 131.43 70.93C131.48 69.95 131.51 68.97 131.51 68C131.51 67.02 131.48 66.04 131.43 65.06C131.38 64.09 131.31 63.11 131.21 62.14C131.11 61.16 130.99 60.19 130.84 59.23C130.69 58.26 130.52 57.3 130.33 56.34C130.13 55.38 129.91 54.42 129.66 53.48C129.42 52.53 129.15 51.58 128.86 50.65C128.57 49.71 128.25 48.78 127.91 47.86C127.57 46.94 127.21 46.03 126.83 45.13C126.44 44.22 126.03 43.33 125.6 42.45C125.17 41.56 124.72 40.69 124.24 39.83C123.77 38.96 123.27 38.11 122.76 37.27C122.24 36.44 121.7 35.61 121.14 34.8C120.58 33.98 120 33.18 119.4 32.4C118.8 31.61 118.18 30.84 117.55 30.09C116.91 29.33 116.25 28.59 115.57 27.87C114.9 27.14 114.2 26.43 113.49 25.74C112.78 25.05 112.05 24.38 111.3 23.72C110.56 23.06 109.8 22.42 109.02 21.8C108.24 21.18 107.45 20.58 106.64 20C105.83 19.42 105.01 18.85 104.17 18.31C103.33 17.77 102.48 17.24 101.62 16.74C100.76 16.24 99.88 15.76 98.99 15.3C98.1 14.83 97.21 14.4 96.3 13.98C95.39 13.56 94.47 13.16 93.53 12.79C92.6 12.41 91.67 12.06 90.72 11.73C89.77 11.4 88.81 11.1 87.85 10.81C86.89 10.53 85.92 10.27 84.94 10.03C83.96 9.79 82.98 9.58 82 9.39C81.01 9.2 80.02 9.03 79.02 8.89C78.03 8.74 77.03 8.62 76.02 8.53C75.02 8.43 74.02 8.36 73.01 8.31C72.01 8.26 71 8.24 70 8.24ZM70 26.18C70.6 26.18 71.2 26.2 71.8 26.26C72.41 26.32 73 26.41 73.6 26.52C74.19 26.63 74.78 26.78 75.35 26.95C75.93 27.12 76.5 27.32 77.06 27.54C77.62 27.77 78.16 28.02 78.7 28.29C79.23 28.57 79.75 28.87 80.25 29.2C80.76 29.52 81.24 29.87 81.71 30.25C82.17 30.62 82.62 31.01 83.05 31.43C83.48 31.84 83.88 32.28 84.27 32.73C84.65 33.19 85.01 33.66 85.35 34.15C85.68 34.63 85.99 35.14 86.28 35.66C86.56 36.17 86.82 36.7 87.05 37.25C87.28 37.79 87.49 38.34 87.66 38.9C87.84 39.47 87.98 40.03 88.1 40.61C88.22 41.19 88.31 41.77 88.37 42.35C88.43 42.94 88.46 43.52 88.46 44.11C88.46 44.7 88.43 45.28 88.37 45.87C88.31 46.45 88.22 47.03 88.1 47.61C87.98 48.19 87.84 48.75 87.66 49.32C87.49 49.88 87.28 50.43 87.05 50.97C86.82 51.52 86.56 52.05 86.28 52.56C85.99 53.08 85.68 53.59 85.35 54.07C85.01 54.56 84.65 55.03 84.27 55.49C83.88 55.94 83.48 56.38 83.05 56.79C82.62 57.21 82.17 57.6 81.71 57.97C81.24 58.35 80.76 58.7 80.25 59.02C79.75 59.35 79.23 59.65 78.7 59.93C78.16 60.2 77.62 60.46 77.06 60.68C76.5 60.9 75.93 61.1 75.35 61.27C74.78 61.44 74.19 61.59 73.6 61.7C73 61.81 72.41 61.9 71.8 61.96C71.2 62.02 70.6 62.05 70 62.05C69.39 62.05 68.79 62.02 68.19 61.96C67.58 61.9 66.99 61.81 66.39 61.7C65.8 61.59 65.21 61.44 64.64 61.27C64.06 61.1 63.49 60.9 62.93 60.68C62.37 60.46 61.83 60.2 61.29 59.93C60.76 59.65 60.24 59.35 59.74 59.02C59.24 58.7 58.75 58.35 58.28 57.97C57.82 57.6 57.37 57.21 56.94 56.79C56.51 56.38 56.11 55.94 55.72 55.49C55.34 55.03 54.98 54.56 54.64 54.07C54.31 53.59 54 53.08 53.71 52.56C53.43 52.05 53.17 51.52 52.94 50.97C52.71 50.43 52.5 49.88 52.33 49.32C52.15 48.75 52.01 48.19 51.89 47.61C51.77 47.03 51.68 46.45 51.62 45.87C51.56 45.28 51.53 44.7 51.53 44.11C51.53 43.52 51.56 42.94 51.62 42.35C51.68 41.77 51.76 41.18 51.88 40.61C52 40.03 52.14 39.46 52.32 38.9C52.49 38.34 52.7 37.78 52.93 37.24C53.16 36.7 53.41 36.17 53.7 35.65C53.98 35.13 54.29 34.62 54.63 34.14C54.97 33.65 55.33 33.18 55.71 32.72C56.09 32.27 56.5 31.83 56.93 31.42C57.36 31 57.8 30.61 58.27 30.23C58.74 29.86 59.22 29.51 59.73 29.18C60.23 28.86 60.75 28.56 61.28 28.28C61.82 28 62.36 27.75 62.92 27.53C63.48 27.3 64.05 27.11 64.63 26.94C65.21 26.77 65.8 26.63 66.39 26.51C66.98 26.4 67.58 26.31 68.18 26.26C68.79 26.2 69.39 26.17 70 26.18ZM70 111.18C68.18 111.17 66.36 111.06 64.56 110.85C62.75 110.63 60.97 110.3 59.2 109.87C57.44 109.44 55.71 108.9 54.01 108.27C52.32 107.63 50.67 106.89 49.06 106.05C47.46 105.22 45.92 104.29 44.43 103.26C42.95 102.24 41.53 101.14 40.19 99.95C38.84 98.75 37.58 97.49 36.4 96.15C35.21 94.8 34.12 93.4 33.11 91.92C33.11 80.02 57.7 73.52 70 73.52C82.29 73.52 106.7 80.02 106.88 91.92C105.87 93.39 104.77 94.79 103.58 96.12C102.39 97.46 101.13 98.71 99.78 99.9C98.43 101.08 97.02 102.18 95.53 103.19C94.05 104.21 92.5 105.13 90.9 105.96C89.3 106.79 87.65 107.52 85.95 108.15C84.26 108.78 82.53 109.31 80.77 109.73C79.01 110.16 77.22 110.48 75.42 110.69C73.62 110.9 71.81 111.01 70 111.01L70 111.18Z" fill="#4F7FCF" fill-opacity="1.000000" fill-rule="nonzero"/>
	</g>
</svg>
